<svg xmlns="http://www.w3.org/2000/svg" width="995" height="260" viewBox="0 0 995 260">
  <rect x="0" y="0" width="995" height="260" fill="#f8fafc" />
  <text x="497.5" y="24" text-anchor="middle" font-family="Arial, 'Microsoft YaHei', sans-serif" font-size="18" font-weight="700" fill="#111827">C 座 3 楼</text>
  <g id="C302" data-room="C302" transform="translate(140 120)">
    <rect x="0" y="0" width="85" height="55" rx="3" ry="3" fill="#ffffff" stroke="#222222" stroke-width="1.5" />
    <text x="42.5" y="32.5" text-anchor="middle" font-family="Arial, 'Microsoft YaHei', sans-serif" font-size="13" fill="#111111">C302</text>
  </g>
  <g id="C303" data-room="C303" transform="translate(230 120)">
    <rect x="0" y="0" width="85" height="55" rx="3" ry="3" fill="#ffffff" stroke="#222222" stroke-width="1.5" />
    <text x="42.5" y="32.5" text-anchor="middle" font-family="Arial, 'Microsoft YaHei', sans-serif" font-size="13" fill="#111111">C303</text>
  </g>
  <g id="C304" data-room="C304" transform="translate(320 120)">
    <rect x="0" y="0" width="85" height="55" rx="3" ry="3" fill="#ffffff" stroke="#222222" stroke-width="1.5" />
    <text x="42.5" y="32.5" text-anchor="middle" font-family="Arial, 'Microsoft YaHei', sans-serif" font-size="13" fill="#111111">C304</text>
  </g>
  <g id="C307" data-room="C307" transform="translate(620 120)">
    <rect x="0" y="0" width="80" height="55" rx="3" ry="3" fill="#ffffff" stroke="#222222" stroke-width="1.5" />
    <text x="40" y="32.5" text-anchor="middle" font-family="Arial, 'Microsoft YaHei', sans-serif" font-size="13" fill="#111111">C307</text>
  </g>
  <g id="C308" data-room="C308" transform="translate(705 120)">
    <rect x="0" y="0" width="80" height="55" rx="3" ry="3" fill="#ffffff" stroke="#222222" stroke-width="1.5" />
    <text x="40" y="32.5" text-anchor="middle" font-family="Arial, 'Microsoft YaHei', sans-serif" font-size="13" fill="#111111">C308</text>
  </g>
  <g id="C310" data-room="C310" transform="translate(790 120)">
    <rect x="0" y="0" width="80" height="55" rx="3" ry="3" fill="#ffffff" stroke="#222222" stroke-width="1.5" />
    <text x="40" y="32.5" text-anchor="middle" font-family="Arial, 'Microsoft YaHei', sans-serif" font-size="13" fill="#111111">C310</text>
  </g>
  <g id="C311" data-room="C311" transform="translate(875 120)">
    <rect x="0" y="0" width="80" height="55" rx="3" ry="3" fill="#ffffff" stroke="#222222" stroke-width="1.5" />
    <text x="40" y="32.5" text-anchor="middle" font-family="Arial, 'Microsoft YaHei', sans-serif" font-size="13" fill="#111111">C311</text>
  </g>
</svg>
