<svg xmlns="http://www.w3.org/2000/svg" width="990" height="305" viewBox="0 0 990 305">
  <rect x="0" y="0" width="990" height="305" fill="#f8fafc" />
  <text x="495" y="24" text-anchor="middle" font-family="Arial, 'Microsoft YaHei', sans-serif" font-size="18" font-weight="700" fill="#111827">B 座 4 楼</text>
  <g id="B420" data-room="B420" transform="translate(100 70)">
    <rect x="0" y="0" width="105" height="40" rx="3" ry="3" fill="#ffffff" stroke="#222222" stroke-width="1.5" />
    <text x="52.5" y="25" text-anchor="middle" font-family="Arial, 'Microsoft YaHei', sans-serif" font-size="13" fill="#111111">B420</text>
  </g>
  <g id="B419" data-room="B419" transform="translate(220 70)">
    <rect x="0" y="0" width="105" height="40" rx="3" ry="3" fill="#ffffff" stroke="#222222" stroke-width="1.5" />
    <text x="52.5" y="25" text-anchor="middle" font-family="Arial, 'Microsoft YaHei', sans-serif" font-size="13" fill="#111111">B419</text>
  </g>
  <g id="B418" data-room="B418" transform="translate(330 70)">
    <rect x="0" y="0" width="105" height="40" rx="3" ry="3" fill="#ffffff" stroke="#222222" stroke-width="1.5" />
    <text x="52.5" y="25" text-anchor="middle" font-family="Arial, 'Microsoft YaHei', sans-serif" font-size="13" fill="#111111">B418</text>
  </g>
  <g id="B401" data-room="B401" transform="translate(180 205)">
    <rect x="0" y="0" width="65" height="40" rx="3" ry="3" fill="#ffffff" stroke="#222222" stroke-width="1.5" />
    <text x="32.5" y="25" text-anchor="middle" font-family="Arial, 'Microsoft YaHei', sans-serif" font-size="13" fill="#111111">B401</text>
  </g>
  <g id="B402" data-room="B402" transform="translate(270 205)">
    <rect x="0" y="0" width="65" height="40" rx="3" ry="3" fill="#ffffff" stroke="#222222" stroke-width="1.5" />
    <text x="32.5" y="25" text-anchor="middle" font-family="Arial, 'Microsoft YaHei', sans-serif" font-size="13" fill="#111111">B402</text>
  </g>
  <g id="B403" data-room="B403" transform="translate(350 205)">
    <rect x="0" y="0" width="65" height="40" rx="3" ry="3" fill="#ffffff" stroke="#222222" stroke-width="1.5" />
    <text x="32.5" y="25" text-anchor="middle" font-family="Arial, 'Microsoft YaHei', sans-serif" font-size="13" fill="#111111">B403</text>
  </g>
  <g id="B415" data-room="B415" transform="translate(510 70)">
    <rect x="0" y="0" width="80" height="40" rx="3" ry="3" fill="#ffffff" stroke="#222222" stroke-width="1.5" />
    <text x="40" y="25" text-anchor="middle" font-family="Arial, 'Microsoft YaHei', sans-serif" font-size="13" fill="#111111">B415</text>
  </g>
  <g id="B414" data-room="B414" transform="translate(595 70)">
    <rect x="0" y="0" width="80" height="40" rx="3" ry="3" fill="#ffffff" stroke="#222222" stroke-width="1.5" />
    <text x="40" y="25" text-anchor="middle" font-family="Arial, 'Microsoft YaHei', sans-serif" font-size="13" fill="#111111">B414</text>
  </g>
  <g id="B413" data-room="B413" transform="translate(670 70)">
    <rect x="0" y="0" width="80" height="40" rx="3" ry="3" fill="#ffffff" stroke="#222222" stroke-width="1.5" />
    <text x="40" y="25" text-anchor="middle" font-family="Arial, 'Microsoft YaHei', sans-serif" font-size="13" fill="#111111">B413</text>
  </g>
  <g id="B412" data-room="B412" transform="translate(785 70)">
    <rect x="0" y="0" width="80" height="40" rx="3" ry="3" fill="#ffffff" stroke="#222222" stroke-width="1.5" />
    <text x="40" y="25" text-anchor="middle" font-family="Arial, 'Microsoft YaHei', sans-serif" font-size="13" fill="#111111">B412</text>
  </g>
  <g id="B411" data-room="B411" transform="translate(870 70)">
    <rect x="0" y="0" width="80" height="40" rx="3" ry="3" fill="#ffffff" stroke="#222222" stroke-width="1.5" />
    <text x="40" y="25" text-anchor="middle" font-family="Arial, 'Microsoft YaHei', sans-serif" font-size="13" fill="#111111">B411</text>
  </g>
  <g id="B404" data-room="B404" transform="translate(460 205)">
    <rect x="0" y="0" width="60" height="60" rx="3" ry="3" fill="#ffffff" stroke="#222222" stroke-width="1.5" />
    <text x="30" y="35" text-anchor="middle" font-family="Arial, 'Microsoft YaHei', sans-serif" font-size="13" fill="#111111">B404</text>
  </g>
  <g id="B405" data-room="B405" transform="translate(530 205)">
    <rect x="0" y="0" width="60" height="40" rx="3" ry="3" fill="#ffffff" stroke="#222222" stroke-width="1.5" />
    <text x="30" y="25" text-anchor="middle" font-family="Arial, 'Microsoft YaHei', sans-serif" font-size="13" fill="#111111">B405</text>
  </g>
  <g id="B406" data-room="B406" transform="translate(590 205)">
    <rect x="0" y="0" width="60" height="40" rx="3" ry="3" fill="#ffffff" stroke="#222222" stroke-width="1.5" />
    <text x="30" y="25" text-anchor="middle" font-family="Arial, 'Microsoft YaHei', sans-serif" font-size="13" fill="#111111">B406</text>
  </g>
  <g id="B407" data-room="B407" transform="translate(650 205)">
    <rect x="0" y="0" width="60" height="40" rx="3" ry="3" fill="#ffffff" stroke="#222222" stroke-width="1.5" />
    <text x="30" y="25" text-anchor="middle" font-family="Arial, 'Microsoft YaHei', sans-serif" font-size="13" fill="#111111">B407</text>
  </g>
  <g id="B408" data-room="B408" transform="translate(710 205)">
    <rect x="0" y="0" width="60" height="40" rx="3" ry="3" fill="#ffffff" stroke="#222222" stroke-width="1.5" />
    <text x="30" y="25" text-anchor="middle" font-family="Arial, 'Microsoft YaHei', sans-serif" font-size="13" fill="#111111">B408</text>
  </g>
  <g id="B409" data-room="B409" transform="translate(810 205)">
    <rect x="0" y="0" width="65" height="40" rx="3" ry="3" fill="#ffffff" stroke="#222222" stroke-width="1.5" />
    <text x="32.5" y="25" text-anchor="middle" font-family="Arial, 'Microsoft YaHei', sans-serif" font-size="13" fill="#111111">B409</text>
  </g>
</svg>
