<svg xmlns="http://www.w3.org/2000/svg" width="990" height="300" viewBox="0 0 990 300">
  <rect x="0" y="0" width="990" height="300" fill="#f8fafc" />
  <text x="495" y="24" text-anchor="middle" font-family="Arial, 'Microsoft YaHei', sans-serif" font-size="18" font-weight="700" fill="#111827">B 座 5 楼</text>
  <g id="B519" data-room="B519" transform="translate(100 70)">
    <rect x="0" y="0" width="105" height="40" rx="3" ry="3" fill="#ffffff" stroke="#222222" stroke-width="1.5" />
    <text x="52.5" y="25" text-anchor="middle" font-family="Arial, 'Microsoft YaHei', sans-serif" font-size="13" fill="#111111">B519</text>
  </g>
  <g id="B518" data-room="B518" transform="translate(220 70)">
    <rect x="0" y="0" width="105" height="40" rx="3" ry="3" fill="#ffffff" stroke="#222222" stroke-width="1.5" />
    <text x="52.5" y="25" text-anchor="middle" font-family="Arial, 'Microsoft YaHei', sans-serif" font-size="13" fill="#111111">B518</text>
  </g>
  <g id="B517" data-room="B517" transform="translate(330 70)">
    <rect x="0" y="0" width="105" height="40" rx="3" ry="3" fill="#ffffff" stroke="#222222" stroke-width="1.5" />
    <text x="52.5" y="25" text-anchor="middle" font-family="Arial, 'Microsoft YaHei', sans-serif" font-size="13" fill="#111111">B517</text>
  </g>
  <g id="B501" data-room="B501" transform="translate(180 205)">
    <rect x="0" y="0" width="65" height="40" rx="3" ry="3" fill="#ffffff" stroke="#222222" stroke-width="1.5" />
    <text x="32.5" y="25" text-anchor="middle" font-family="Arial, 'Microsoft YaHei', sans-serif" font-size="13" fill="#111111">B501</text>
  </g>
  <g id="B502" data-room="B502" transform="translate(270 205)">
    <rect x="0" y="0" width="65" height="40" rx="3" ry="3" fill="#ffffff" stroke="#222222" stroke-width="1.5" />
    <text x="32.5" y="25" text-anchor="middle" font-family="Arial, 'Microsoft YaHei', sans-serif" font-size="13" fill="#111111">B502</text>
  </g>
  <g id="B503" data-room="B503" transform="translate(350 205)">
    <rect x="0" y="0" width="65" height="40" rx="3" ry="3" fill="#ffffff" stroke="#222222" stroke-width="1.5" />
    <text x="32.5" y="25" text-anchor="middle" font-family="Arial, 'Microsoft YaHei', sans-serif" font-size="13" fill="#111111">B503</text>
  </g>
  <g id="B514" data-room="B514" transform="translate(510 70)">
    <rect x="0" y="0" width="80" height="40" rx="3" ry="3" fill="#ffffff" stroke="#222222" stroke-width="1.5" />
    <text x="40" y="25" text-anchor="middle" font-family="Arial, 'Microsoft YaHei', sans-serif" font-size="13" fill="#111111">B514</text>
  </g>
  <g id="B513" data-room="B513" transform="translate(595 70)">
    <rect x="0" y="0" width="80" height="40" rx="3" ry="3" fill="#ffffff" stroke="#222222" stroke-width="1.5" />
    <text x="40" y="25" text-anchor="middle" font-family="Arial, 'Microsoft YaHei', sans-serif" font-size="13" fill="#111111">B513</text>
  </g>
  <g id="B512" data-room="B512" transform="translate(670 70)">
    <rect x="0" y="0" width="80" height="40" rx="3" ry="3" fill="#ffffff" stroke="#222222" stroke-width="1.5" />
    <text x="40" y="25" text-anchor="middle" font-family="Arial, 'Microsoft YaHei', sans-serif" font-size="13" fill="#111111">B512</text>
  </g>
  <g id="B511" data-room="B511" transform="translate(785 70)">
    <rect x="0" y="0" width="80" height="40" rx="3" ry="3" fill="#ffffff" stroke="#222222" stroke-width="1.5" />
    <text x="40" y="25" text-anchor="middle" font-family="Arial, 'Microsoft YaHei', sans-serif" font-size="13" fill="#111111">B511</text>
  </g>
  <g id="B510" data-room="B510" transform="translate(870 70)">
    <rect x="0" y="0" width="80" height="40" rx="3" ry="3" fill="#ffffff" stroke="#222222" stroke-width="1.5" />
    <text x="40" y="25" text-anchor="middle" font-family="Arial, 'Microsoft YaHei', sans-serif" font-size="13" fill="#111111">B510</text>
  </g>
  <g id="B504" data-room="B504" transform="translate(530 205)">
    <rect x="0" y="0" width="60" height="40" rx="3" ry="3" fill="#ffffff" stroke="#222222" stroke-width="1.5" />
    <text x="30" y="25" text-anchor="middle" font-family="Arial, 'Microsoft YaHei', sans-serif" font-size="13" fill="#111111">B504</text>
  </g>
  <g id="B505" data-room="B505" transform="translate(590 205)">
    <rect x="0" y="0" width="60" height="40" rx="3" ry="3" fill="#ffffff" stroke="#222222" stroke-width="1.5" />
    <text x="30" y="25" text-anchor="middle" font-family="Arial, 'Microsoft YaHei', sans-serif" font-size="13" fill="#111111">B505</text>
  </g>
  <g id="B506" data-room="B506" transform="translate(650 205)">
    <rect x="0" y="0" width="60" height="40" rx="3" ry="3" fill="#ffffff" stroke="#222222" stroke-width="1.5" />
    <text x="30" y="25" text-anchor="middle" font-family="Arial, 'Microsoft YaHei', sans-serif" font-size="13" fill="#111111">B506</text>
  </g>
  <g id="B507" data-room="B507" transform="translate(710 205)">
    <rect x="0" y="0" width="60" height="40" rx="3" ry="3" fill="#ffffff" stroke="#222222" stroke-width="1.5" />
    <text x="30" y="25" text-anchor="middle" font-family="Arial, 'Microsoft YaHei', sans-serif" font-size="13" fill="#111111">B507</text>
  </g>
  <g id="B508" data-room="B508" transform="translate(810 205)">
    <rect x="0" y="0" width="65" height="40" rx="3" ry="3" fill="#ffffff" stroke="#222222" stroke-width="1.5" />
    <text x="32.5" y="25" text-anchor="middle" font-family="Arial, 'Microsoft YaHei', sans-serif" font-size="13" fill="#111111">B508</text>
  </g>
</svg>
